<svg width="156" height="156" viewBox="0 0 156 156" fill="none" xmlns="http://www.w3.org/2000/svg">
<path d="M50.2408 7.50185C47.8948 1.83491 41.7099 -1.18136 35.7992 0.433413L8.98788 7.74559C3.68656 9.20803 0 14.0219 0 19.506C0 94.8824 61.1176 156 136.494 156C141.978 156 146.792 152.313 148.254 147.012L155.567 120.201C157.181 114.29 154.165 108.105 148.498 105.759L119.249 93.5723C114.283 91.5005 108.525 92.9325 105.143 97.1065L92.8342 112.127C71.3851 101.981 54.0187 84.6149 43.8731 63.1658L58.8935 50.8874C63.0675 47.4751 64.4995 41.7472 62.4277 36.781L50.2408 7.53232V7.50185Z" fill="white"/>
</svg>
