<svg width="226" height="226" viewBox="0 0 226 226" fill="none" xmlns="http://www.w3.org/2000/svg">
<path d="M113.025 55.0565C80.9592 55.0565 55.0946 80.9268 55.0946 113C55.0946 145.073 80.9592 170.944 113.025 170.944C145.091 170.944 170.956 145.073 170.956 113C170.956 80.9268 145.091 55.0565 113.025 55.0565ZM113.025 150.671C92.3033 150.671 75.3627 133.777 75.3627 113C75.3627 92.223 92.2529 75.3291 113.025 75.3291C133.798 75.3291 150.688 92.223 150.688 113C150.688 133.777 133.747 150.671 113.025 150.671ZM186.838 52.6863C186.838 60.2003 180.787 66.2014 173.326 66.2014C165.813 66.2014 159.813 60.1498 159.813 52.6863C159.813 45.2227 165.864 39.1711 173.326 39.1711C180.787 39.1711 186.838 45.2227 186.838 52.6863ZM225.206 66.4031C224.349 48.2989 220.215 32.2623 206.954 19.0498C193.745 5.83722 177.712 1.702 159.612 0.794265C140.957 -0.264755 85.0431 -0.264755 66.3883 0.794265C48.3385 1.65157 32.3055 5.78679 19.0455 18.9993C5.7855 32.2119 1.70162 48.2485 0.794088 66.3527C-0.264696 85.0116 -0.264696 140.938 0.794088 159.597C1.6512 177.701 5.7855 193.738 19.0455 206.95C32.3055 220.163 48.2881 224.298 66.3883 225.206C85.0431 226.265 140.957 226.265 159.612 225.206C177.712 224.348 193.745 220.213 206.954 206.95C220.164 193.738 224.298 177.701 225.206 159.597C226.265 140.938 226.265 85.062 225.206 66.4031ZM201.106 179.617C197.173 189.502 189.56 197.116 179.628 201.1C164.754 207.001 129.462 205.639 113.025 205.639C96.5888 205.639 61.2456 206.95 46.4226 201.1C36.5407 197.167 28.9275 189.552 24.9445 179.617C19.0455 164.741 20.4068 129.44 20.4068 113C20.4068 96.56 19.0959 61.2089 24.9445 46.3826C28.8771 36.4984 36.4902 28.8835 46.4226 24.8996C61.296 18.9993 96.5888 20.3609 113.025 20.3609C129.462 20.3609 164.805 19.0498 179.628 24.8996C189.51 28.8331 197.123 36.448 201.106 46.3826C207.005 61.2593 205.644 96.56 205.644 113C205.644 129.44 207.005 164.791 201.106 179.617Z" fill="#EDC862"/>
</svg>
