<svg width="147" height="190" viewBox="0 0 147 190" fill="none" xmlns="http://www.w3.org/2000/svg">
<g filter="url(#filter0_d_68_41)">
<path d="M82.0789 177.91C100.648 155.03 143 99.5757 143 68.4271C143 30.6496 111.87 0 73.5 0C35.1302 0 4 30.6496 4 68.4271C4 99.5757 46.3516 155.03 64.9211 177.91C69.3734 183.363 77.6266 183.363 82.0789 177.91ZM73.5 45.6181C79.6442 45.6181 85.5367 48.0211 89.8813 52.2987C94.2259 56.5762 96.6667 62.3777 96.6667 68.4271C96.6667 74.4764 94.2259 80.278 89.8813 84.5555C85.5367 88.833 79.6442 91.2361 73.5 91.2361C67.3558 91.2361 61.4633 88.833 57.1187 84.5555C52.7741 80.278 50.3333 74.4764 50.3333 68.4271C50.3333 62.3777 52.7741 56.5762 57.1187 52.2987C61.4633 48.0211 67.3558 45.6181 73.5 45.6181Z" fill="white"/>
</g>
<defs>
<filter id="filter0_d_68_41" x="0" y="0" width="147" height="190" filterUnits="userSpaceOnUse" color-interpolation-filters="sRGB">
<feFlood flood-opacity="0" result="BackgroundImageFix"/>
<feColorMatrix in="SourceAlpha" type="matrix" values="0 0 0 0 0 0 0 0 0 0 0 0 0 0 0 0 0 0 127 0" result="hardAlpha"/>
<feOffset dy="4"/>
<feGaussianBlur stdDeviation="2"/>
<feComposite in2="hardAlpha" operator="out"/>
<feColorMatrix type="matrix" values="0 0 0 0 0 0 0 0 0 0 0 0 0 0 0 0 0 0 0.25 0"/>
<feBlend mode="normal" in2="BackgroundImageFix" result="effect1_dropShadow_68_41"/>
<feBlend mode="normal" in="SourceGraphic" in2="effect1_dropShadow_68_41" result="shape"/>
</filter>
</defs>
</svg>
