<svg width="178" height="203" viewBox="0 0 178 203" fill="none" xmlns="http://www.w3.org/2000/svg">
<path d="M178 83.2302C160.502 83.2676 143.434 77.8164 129.209 67.6469V138.545C129.205 151.676 125.184 164.492 117.683 175.281C110.183 186.069 99.5603 194.314 87.237 198.914C74.9136 203.514 61.4767 204.249 48.7233 201.022C35.9698 197.794 24.508 190.757 15.8706 180.852C7.23316 170.947 1.83202 158.646 0.389512 145.594C-1.053 132.543 1.53189 119.363 7.79846 107.817C14.065 96.2711 23.7145 86.9102 35.4564 80.9859C47.1983 75.0616 60.4728 72.8564 73.5045 74.6653V110.313C67.5457 108.441 61.1466 108.496 55.2209 110.469C49.2952 112.443 44.1458 116.235 40.5081 121.303C36.8704 126.372 34.9303 132.458 34.9648 138.692C34.9993 144.926 37.0067 150.99 40.7004 156.018C44.394 161.046 49.5851 164.781 55.5323 166.689C61.4795 168.598 67.8788 168.582 73.8165 166.644C79.7542 164.706 84.9266 160.946 88.5952 155.9C92.2639 150.854 94.2411 144.78 94.2447 138.545V0H129.209C129.189 2.95118 129.442 5.8979 129.964 8.80282C131.18 15.2781 133.706 21.4378 137.388 26.9057C141.07 32.3735 145.831 37.0346 151.379 40.604C159.277 45.8097 168.535 48.5815 178 48.5741V83.2302Z" fill="#4C644C"/>
</svg>
