<svg width="237" height="165" viewBox="0 0 237 165" fill="none" xmlns="http://www.w3.org/2000/svg">
<path d="M232.053 25.8242C229.32 15.6406 221.293 7.64844 211.096 4.94141C192.611 0 118.5 0 118.5 0C118.5 0 44.3887 0 25.9042 4.94141C15.7074 7.64844 7.68015 15.6406 4.94654 25.8242C0 44.2578 0 82.6719 0 82.6719C0 82.6719 0 121.086 4.94654 139.52C7.68015 149.703 15.7074 157.352 25.9042 160.059C44.3887 165 118.5 165 118.5 165C118.5 165 192.611 165 211.096 160.059C221.293 157.352 229.32 149.66 232.053 139.52C237 121.086 237 82.6719 237 82.6719C237 82.6719 237 44.2578 232.053 25.8242ZM94.288 117.563V47.7812L156.207 82.6719L94.288 117.563Z" fill="#EDC862"/>
</svg>
